<svg xmlns="http://www.w3.org/2000/svg" viewBox="0 0 538 83"><g transform="scale(0.86)"><path d="M 18.00 15.00 C 72.00 10.00 119.70 16.56 137.09 35.89" fill="none" stroke="#F4EFE6" stroke-width="8.5" stroke-linecap="round"/><path d="M 18.00 48.00 C 62.00 41.00 102.00 55.00 131.70 48.00" fill="none" stroke="#F4EFE6" stroke-width="8.5" stroke-linecap="round"/><path d="M 18.00 81.00 C 72.00 86.00 119.70 79.44 137.09 60.11" fill="none" stroke="#F4EFE6" stroke-width="8.5" stroke-linecap="round"/><path d="M 164.3 48 L 222 48" fill="none" stroke="#F4EFE6" stroke-width="8.5" stroke-linecap="round"/><circle cx="148" cy="48" r="9.5" fill="#D4A017"/></g><g transform="translate(234.4,-14.5) scale(0.95)"><g transform="translate(0.00,103.00) scale(0.100000,-0.100000)"><path d="M218 -15Q172 -15 131.5 3.0Q91 21 65.5 55.5Q40 90 40 141Q40 214 87.5 255.5Q135 297 241 313Q275 318 302.0 322.5Q329 327 345.5 336.5Q362 346 362 367Q362 382 353.5 394.0Q345 406 329.0 412.5Q313 419 289 419Q258 419 238.0 407.0Q218 395 205 379Q192 365 176.0 356.5Q160 348 139 348Q111 348 94.5 362.5Q78 377 78 402Q78 427 94.0 449.5Q110 472 138.5 490.0Q167 508 205.0 518.5Q243 529 287 529Q355 529 401.0 504.5Q447 480 470.5 436.0Q494 392 494 335V137Q494 124 497.0 119.5Q500 115 509 112Q525 106 539.0 92.0Q553 78 553 54Q553 27 533.5 8.0Q514 -11 477 -10Q436 -9 413.5 10.5Q391 30 385 62L384 69H381Q354 28 317.0 6.5Q280 -15 218 -15ZM247 98Q279 98 305.0 111.0Q331 124 346.5 148.0Q362 172 362 205V240Q362 243 360.5 243.0Q359 243 356 241Q344 233 327.0 229.0Q310 225 291.5 222.5Q273 220 254 215Q208 206 190.5 191.0Q173 176 173 153Q173 128 191.5 113.0Q210 98 247 98Z" fill="#F4EFE6"/></g><g transform="translate(59.00,103.00) scale(0.100000,-0.100000)"><path d="M136 -10Q108 -10 89.0 9.5Q70 29 70 58V664Q70 692 89.0 711.0Q108 730 136 730Q165 730 184.0 711.0Q203 692 203 664V58Q203 29 184.0 9.5Q165 -10 136 -10Z" fill="#F4EFE6"/></g><g transform="translate(87.80,103.00) scale(0.100000,-0.100000)"><path d="M136 -10Q108 -10 89.0 9.5Q70 29 70 58V664Q70 692 89.0 711.0Q108 730 136 730Q165 730 184.0 711.0Q203 692 203 664V58Q203 29 184.0 9.5Q165 -10 136 -10Z" fill="#F4EFE6"/></g><g transform="translate(116.60,103.00) scale(0.100000,-0.100000)"><path d="M252 -10Q189 -10 147.5 13.5Q106 37 85.5 81.0Q65 125 65 188V464Q65 491 84.5 510.5Q104 530 131 530Q159 530 178.0 510.5Q197 491 197 464V210Q197 155 224.0 135.0Q251 115 294 115Q328 115 352.0 130.0Q376 145 389.0 169.5Q402 194 402 223V464Q402 491 421.5 510.5Q441 530 469 530Q497 530 516.0 510.5Q535 491 535 464V57Q535 30 516.0 10.5Q497 -9 469 -9Q441 -9 421.5 10.5Q402 30 402 57V123L429 110Q397 50 354.5 20.0Q312 -10 252 -10Z" fill="#F4EFE6"/></g><g transform="translate(178.60,103.00) scale(0.100000,-0.100000)"><path d="M254 -11Q234 -11 216.0 0.5Q198 12 188 36L35 435Q27 454 32.0 474.5Q37 495 53.0 510.0Q69 525 95 525Q118 525 134.5 513.0Q151 501 158 483L275 178L249 175L370 483Q377 501 393.5 513.0Q410 525 430 525Q452 525 467.0 510.5Q482 496 488.0 475.5Q494 455 486 435L320 36Q311 14 292.5 1.5Q274 -11 254 -11Z" fill="#F4EFE6"/></g><g transform="translate(232.10,103.00) scale(0.100000,-0.100000)"><path d="M137 -10Q109 -10 89.5 10.0Q70 30 70 57V459Q70 486 89.5 505.5Q109 525 137 525Q164 525 183.5 505.5Q203 486 203 459V57Q203 30 183.5 10.0Q164 -10 137 -10Z" fill="#F4EFE6"/></g><g transform="translate(260.90,103.00) scale(0.100000,-0.100000)"><path d="M218 -15Q172 -15 131.5 3.0Q91 21 65.5 55.5Q40 90 40 141Q40 214 87.5 255.5Q135 297 241 313Q275 318 302.0 322.5Q329 327 345.5 336.5Q362 346 362 367Q362 382 353.5 394.0Q345 406 329.0 412.5Q313 419 289 419Q258 419 238.0 407.0Q218 395 205 379Q192 365 176.0 356.5Q160 348 139 348Q111 348 94.5 362.5Q78 377 78 402Q78 427 94.0 449.5Q110 472 138.5 490.0Q167 508 205.0 518.5Q243 529 287 529Q355 529 401.0 504.5Q447 480 470.5 436.0Q494 392 494 335V137Q494 124 497.0 119.5Q500 115 509 112Q525 106 539.0 92.0Q553 78 553 54Q553 27 533.5 8.0Q514 -11 477 -10Q436 -9 413.5 10.5Q391 30 385 62L384 69H381Q354 28 317.0 6.5Q280 -15 218 -15ZM247 98Q279 98 305.0 111.0Q331 124 346.5 148.0Q362 172 362 205V240Q362 243 360.5 243.0Q359 243 356 241Q344 233 327.0 229.0Q310 225 291.5 222.5Q273 220 254 215Q208 206 190.5 191.0Q173 176 173 153Q173 128 191.5 113.0Q210 98 247 98Z" fill="#F4EFE6"/></g><circle cx="245.80" cy="37.70" r="8.78" fill="#D4A017"/></g></svg>